<svg width="32" height="32" viewBox="0 0 32 32" fill="none" xmlns="http://www.w3.org/2000/svg">
<rect width="32" height="32" rx="16" fill="#2E43FE"/>
<path d="M14.2246 7.53072C13.7997 6.24839 11.9405 6.23742 11.4972 7.51144L6.57652 21.6551C6.25131 22.5898 6.98519 23.5 7.93692 23.5H10.1697C10.7702 23.5 11.3221 23.1335 11.5264 22.5614L15.3508 11.8476C15.4531 11.5609 15.4568 11.2495 15.361 10.9606L14.2246 7.53072ZM20.4811 7.44903C20.0408 6.18366 18.2005 6.18366 17.7603 7.44903L12.8179 21.6551C12.4926 22.5898 13.2265 23.5 14.1782 23.5H16.0636C16.655 23.5 17.2 23.1447 17.4115 22.5854L18.7082 19.1566C18.8434 18.7989 19.3979 18.7989 19.5332 19.1566L20.8299 22.5854C21.0413 23.1447 21.5864 23.5 22.1778 23.5H24.0631C25.0148 23.5 25.7487 22.5898 25.4235 21.6551L20.4811 7.44903Z" fill="white" stroke="#2E43FE"/>
</svg>
